<mxfile host="app.diagrams.net" modified="2022-06-18T08:53:16.380Z" agent="5.0 (Macintosh; Intel Mac OS X 10_15_7) AppleWebKit/537.36 (KHTML, like Gecko) Chrome/102.0.0.0 Safari/537.36" etag="509xEVwTs2WwNx6R6Uw8" version="18.0.1" type="github" pages="3">
  <diagram id="_AUOcQeDh-8PeULSmrOk" name="Page-1">
    <mxGraphModel dx="946" dy="627" grid="0" gridSize="10" guides="1" tooltips="1" connect="1" arrows="1" fold="1" page="1" pageScale="1" pageWidth="827" pageHeight="1169" math="0" shadow="0">
      <root>
        <mxCell id="0" />
        <mxCell id="1" parent="0" />
        <mxCell id="pXAZHFvy6ENZ5pWNAipS-60" value="" style="rounded=1;whiteSpace=wrap;html=1;fontSize=16;fontColor=#FF3333;" parent="1" vertex="1">
          <mxGeometry x="43" y="446" width="214" height="198" as="geometry" />
        </mxCell>
        <mxCell id="pXAZHFvy6ENZ5pWNAipS-61" value="&lt;font color=&quot;#000000&quot; style=&quot;font-size: 12px;&quot;&gt;testA-0&lt;/font&gt;" style="rounded=0;whiteSpace=wrap;html=1;fontSize=12;fontColor=#FF3333;fillColor=#FFFFFF;" parent="1" vertex="1">
          <mxGeometry x="63" y="458" width="172" height="24" as="geometry" />
        </mxCell>
        <mxCell id="pXAZHFvy6ENZ5pWNAipS-74" value="Broker-101" style="text;html=1;strokeColor=none;fillColor=none;align=center;verticalAlign=middle;whiteSpace=wrap;rounded=0;fontSize=21;fontColor=#000000;" parent="1" vertex="1">
          <mxGeometry x="87" y="658" width="109" height="22" as="geometry" />
        </mxCell>
        <mxCell id="pXAZHFvy6ENZ5pWNAipS-95" value="" style="rounded=1;whiteSpace=wrap;html=1;fontSize=16;fontColor=#FF3333;" parent="1" vertex="1">
          <mxGeometry x="321" y="446" width="214" height="198" as="geometry" />
        </mxCell>
        <mxCell id="pXAZHFvy6ENZ5pWNAipS-99" value="" style="rounded=1;whiteSpace=wrap;html=1;fontSize=16;fontColor=#FF3333;" parent="1" vertex="1">
          <mxGeometry x="583" y="446" width="214" height="198" as="geometry" />
        </mxCell>
        <mxCell id="pXAZHFvy6ENZ5pWNAipS-100" value="&lt;font color=&quot;#000000&quot; style=&quot;font-size: 12px;&quot;&gt;testA-0&lt;/font&gt;" style="rounded=0;whiteSpace=wrap;html=1;fontSize=12;fontColor=#FF3333;" parent="1" vertex="1">
          <mxGeometry x="603" y="458" width="172" height="24" as="geometry" />
        </mxCell>
        <mxCell id="pXAZHFvy6ENZ5pWNAipS-103" value="controller：102" style="ellipse;shape=cloud;whiteSpace=wrap;html=1;fontSize=14;fontColor=#000000;fontStyle=1" parent="1" vertex="1">
          <mxGeometry x="319" y="182" width="221" height="94" as="geometry" />
        </mxCell>
        <mxCell id="pXAZHFvy6ENZ5pWNAipS-108" value="" style="endArrow=classic;startArrow=classic;html=1;rounded=0;fontSize=12;fontColor=#000000;fillColor=#FFF2CC;" parent="1" edge="1">
          <mxGeometry width="50" height="50" relative="1" as="geometry">
            <mxPoint x="434" y="419" as="sourcePoint" />
            <mxPoint x="436" y="286" as="targetPoint" />
          </mxGeometry>
        </mxCell>
        <mxCell id="pXAZHFvy6ENZ5pWNAipS-109" value="" style="endArrow=classic;startArrow=classic;html=1;rounded=0;fontSize=12;fontColor=#000000;fillColor=#FFF2CC;" parent="1" edge="1">
          <mxGeometry width="50" height="50" relative="1" as="geometry">
            <mxPoint x="688" y="431" as="sourcePoint" />
            <mxPoint x="541" y="280" as="targetPoint" />
          </mxGeometry>
        </mxCell>
        <mxCell id="pXAZHFvy6ENZ5pWNAipS-113" value="" style="curved=1;endArrow=classic;html=1;rounded=0;fontSize=15;fontColor=#EA6B66;fillColor=#FFF2CC;exitX=0;exitY=0.75;exitDx=0;exitDy=0;entryX=0.863;entryY=0.083;entryDx=0;entryDy=0;entryPerimeter=0;" parent="1" source="pXAZHFvy6ENZ5pWNAipS-100" target="pd-x_ddA5SxgVwFaRju5-2" edge="1">
          <mxGeometry width="50" height="50" relative="1" as="geometry">
            <mxPoint x="561" y="499" as="sourcePoint" />
            <mxPoint x="238" y="474" as="targetPoint" />
            <Array as="points">
              <mxPoint x="545" y="360" />
            </Array>
          </mxGeometry>
        </mxCell>
        <mxCell id="pXAZHFvy6ENZ5pWNAipS-114" value="&lt;font color=&quot;#000000&quot;&gt;fetch&lt;/font&gt;" style="edgeLabel;html=1;align=center;verticalAlign=middle;resizable=0;points=[];fontSize=15;fontColor=#EA6B66;" parent="pXAZHFvy6ENZ5pWNAipS-113" vertex="1" connectable="0">
          <mxGeometry x="0.2929" y="1" relative="1" as="geometry">
            <mxPoint x="51" y="38" as="offset" />
          </mxGeometry>
        </mxCell>
        <mxCell id="pXAZHFvy6ENZ5pWNAipS-116" value="ZK集群" style="text;html=1;strokeColor=none;fillColor=none;align=center;verticalAlign=middle;whiteSpace=wrap;rounded=0;fontSize=15;fontColor=#000000;" parent="1" vertex="1">
          <mxGeometry x="384" y="158" width="60" height="30" as="geometry" />
        </mxCell>
        <mxCell id="pXAZHFvy6ENZ5pWNAipS-117" value="Broker-102" style="text;html=1;strokeColor=none;fillColor=none;align=center;verticalAlign=middle;whiteSpace=wrap;rounded=0;fontSize=21;fontColor=#000000;" parent="1" vertex="1">
          <mxGeometry x="370" y="658" width="109" height="22" as="geometry" />
        </mxCell>
        <mxCell id="pXAZHFvy6ENZ5pWNAipS-118" value="Broker-103" style="text;html=1;strokeColor=none;fillColor=none;align=center;verticalAlign=middle;whiteSpace=wrap;rounded=0;fontSize=21;fontColor=#000000;" parent="1" vertex="1">
          <mxGeometry x="648" y="658" width="109" height="22" as="geometry" />
        </mxCell>
        <mxCell id="pd-x_ddA5SxgVwFaRju5-2" value="&lt;font color=&quot;#000000&quot; style=&quot;font-size: 12px;&quot;&gt;testA-0&lt;/font&gt;" style="rounded=0;whiteSpace=wrap;html=1;fontSize=12;fontColor=#FF3333;fillColor=#CCFF99;" parent="1" vertex="1">
          <mxGeometry x="343.5" y="459" width="172" height="24" as="geometry" />
        </mxCell>
        <mxCell id="pd-x_ddA5SxgVwFaRju5-3" value="&lt;font color=&quot;#ea6b66&quot; style=&quot;font-size: 15px&quot;&gt;leader&lt;/font&gt;" style="text;html=1;strokeColor=none;fillColor=none;align=center;verticalAlign=middle;whiteSpace=wrap;rounded=0;fontSize=18;fontColor=#000000;" parent="1" vertex="1">
          <mxGeometry x="340.5" y="455" width="60" height="30" as="geometry" />
        </mxCell>
        <mxCell id="pd-x_ddA5SxgVwFaRju5-4" value="" style="verticalLabelPosition=bottom;verticalAlign=top;html=1;shape=mxgraph.basic.x;fillColor=#FF3333;" parent="1" vertex="1">
          <mxGeometry x="92" y="520" width="100" height="100" as="geometry" />
        </mxCell>
      </root>
    </mxGraphModel>
  </diagram>
  <diagram id="4u7BLTlFRPAP1tuZHn1R" name="Page-2">
    <mxGraphModel dx="946" dy="627" grid="0" gridSize="10" guides="1" tooltips="1" connect="1" arrows="1" fold="1" page="1" pageScale="1" pageWidth="827" pageHeight="1169" math="0" shadow="0">
      <root>
        <mxCell id="0" />
        <mxCell id="1" parent="0" />
        <mxCell id="mOAyv0OrGzzF8VgRhnmG-20" value="" style="rounded=0;whiteSpace=wrap;html=1;fontFamily=Helvetica;dashed=1;" vertex="1" parent="1">
          <mxGeometry x="22" y="95" width="797" height="466" as="geometry" />
        </mxCell>
        <mxCell id="mOAyv0OrGzzF8VgRhnmG-41" style="edgeStyle=orthogonalEdgeStyle;rounded=0;orthogonalLoop=1;jettySize=auto;html=1;exitX=0.25;exitY=1;exitDx=0;exitDy=0;entryX=0.75;entryY=0;entryDx=0;entryDy=0;dashed=1;fontFamily=Helvetica;fontSize=18;" edge="1" parent="1" source="mOAyv0OrGzzF8VgRhnmG-1" target="mOAyv0OrGzzF8VgRhnmG-26">
          <mxGeometry relative="1" as="geometry" />
        </mxCell>
        <mxCell id="mOAyv0OrGzzF8VgRhnmG-42" style="edgeStyle=orthogonalEdgeStyle;rounded=0;orthogonalLoop=1;jettySize=auto;html=1;exitX=0.5;exitY=1;exitDx=0;exitDy=0;entryX=0.75;entryY=0;entryDx=0;entryDy=0;dashed=1;fontFamily=Helvetica;fontSize=18;" edge="1" parent="1" source="mOAyv0OrGzzF8VgRhnmG-1" target="mOAyv0OrGzzF8VgRhnmG-30">
          <mxGeometry relative="1" as="geometry" />
        </mxCell>
        <mxCell id="mOAyv0OrGzzF8VgRhnmG-43" style="edgeStyle=orthogonalEdgeStyle;rounded=0;orthogonalLoop=1;jettySize=auto;html=1;exitX=0.75;exitY=1;exitDx=0;exitDy=0;entryX=0.75;entryY=0;entryDx=0;entryDy=0;dashed=1;fontFamily=Helvetica;fontSize=18;" edge="1" parent="1" source="mOAyv0OrGzzF8VgRhnmG-1" target="mOAyv0OrGzzF8VgRhnmG-31">
          <mxGeometry relative="1" as="geometry" />
        </mxCell>
        <mxCell id="mOAyv0OrGzzF8VgRhnmG-44" style="edgeStyle=orthogonalEdgeStyle;rounded=0;orthogonalLoop=1;jettySize=auto;html=1;exitX=0.75;exitY=1;exitDx=0;exitDy=0;entryX=0.112;entryY=-0.008;entryDx=0;entryDy=0;entryPerimeter=0;dashed=1;fontFamily=Helvetica;fontSize=18;" edge="1" parent="1" source="mOAyv0OrGzzF8VgRhnmG-1" target="mOAyv0OrGzzF8VgRhnmG-32">
          <mxGeometry relative="1" as="geometry" />
        </mxCell>
        <mxCell id="mOAyv0OrGzzF8VgRhnmG-1" value="ControllerChannelManager" style="rounded=0;whiteSpace=wrap;html=1;fillColor=#fff2cc;strokeColor=none;" vertex="1" parent="1">
          <mxGeometry x="112" y="415" width="620" height="61" as="geometry" />
        </mxCell>
        <mxCell id="mOAyv0OrGzzF8VgRhnmG-3" value="PartitionStateMachine" style="rounded=0;whiteSpace=wrap;html=1;fillColor=#f8cecc;strokeColor=none;" vertex="1" parent="1">
          <mxGeometry x="111" y="348" width="307" height="61" as="geometry" />
        </mxCell>
        <mxCell id="mOAyv0OrGzzF8VgRhnmG-4" value="ReplicaStateMachine" style="rounded=0;whiteSpace=wrap;html=1;fillColor=#f8cecc;strokeColor=none;" vertex="1" parent="1">
          <mxGeometry x="426" y="348" width="307" height="61" as="geometry" />
        </mxCell>
        <mxCell id="mOAyv0OrGzzF8VgRhnmG-5" value="ZookeeperWatcher" style="rounded=0;whiteSpace=wrap;html=1;fillColor=#b0e3e6;strokeColor=none;" vertex="1" parent="1">
          <mxGeometry x="109" y="137" width="623" height="44" as="geometry" />
        </mxCell>
        <mxCell id="mOAyv0OrGzzF8VgRhnmG-8" value="ControllerEventManager" style="rounded=0;whiteSpace=wrap;html=1;fillColor=#e1d5e7;strokeColor=none;" vertex="1" parent="1">
          <mxGeometry x="110" y="300" width="624" height="40" as="geometry" />
        </mxCell>
        <mxCell id="mOAyv0OrGzzF8VgRhnmG-9" value="BrokerChangeHandler" style="rounded=0;whiteSpace=wrap;html=1;strokeColor=#82b366;fillColor=#d5e8d4;" vertex="1" parent="1">
          <mxGeometry x="110" y="193" width="176" height="47" as="geometry" />
        </mxCell>
        <mxCell id="mOAyv0OrGzzF8VgRhnmG-10" value="TopicChangeHandler" style="rounded=0;whiteSpace=wrap;html=1;fillColor=#d5e8d4;strokeColor=#82b366;" vertex="1" parent="1">
          <mxGeometry x="286" y="193" width="176" height="47" as="geometry" />
        </mxCell>
        <mxCell id="mOAyv0OrGzzF8VgRhnmG-11" value="..." style="rounded=0;whiteSpace=wrap;html=1;strokeColor=#82b366;fillColor=#d5e8d4;" vertex="1" parent="1">
          <mxGeometry x="637" y="193" width="95" height="94" as="geometry" />
        </mxCell>
        <mxCell id="mOAyv0OrGzzF8VgRhnmG-12" value="Controller&lt;br&gt;Context" style="rounded=0;whiteSpace=wrap;html=1;align=center;flipV=1;fillColor=#bac8d3;strokeColor=none;" vertex="1" parent="1">
          <mxGeometry x="36" y="137" width="68" height="338" as="geometry" />
        </mxCell>
        <mxCell id="mOAyv0OrGzzF8VgRhnmG-13" value="LogDirEventNotificationHandler" style="rounded=0;whiteSpace=wrap;html=1;strokeColor=#82b366;fillColor=#d5e8d4;" vertex="1" parent="1">
          <mxGeometry x="110" y="240" width="176" height="47" as="geometry" />
        </mxCell>
        <mxCell id="mOAyv0OrGzzF8VgRhnmG-14" value="IsrChangeNotificationHandler" style="rounded=0;whiteSpace=wrap;html=1;strokeColor=#82b366;fillColor=#d5e8d4;" vertex="1" parent="1">
          <mxGeometry x="286" y="240" width="176" height="47" as="geometry" />
        </mxCell>
        <mxCell id="mOAyv0OrGzzF8VgRhnmG-16" value="PreferredReplicaElectionHandler" style="rounded=0;whiteSpace=wrap;html=1;strokeColor=#82b366;fillColor=#d5e8d4;" vertex="1" parent="1">
          <mxGeometry x="462" y="240" width="176" height="47" as="geometry" />
        </mxCell>
        <mxCell id="mOAyv0OrGzzF8VgRhnmG-18" value="PartitionReassignmentHandler" style="rounded=0;whiteSpace=wrap;html=1;strokeColor=#82b366;fillColor=#d5e8d4;" vertex="1" parent="1">
          <mxGeometry x="462" y="193" width="176" height="47" as="geometry" />
        </mxCell>
        <mxCell id="mOAyv0OrGzzF8VgRhnmG-19" value="Zookeeper" style="rounded=0;whiteSpace=wrap;html=1;align=center;flipV=1;fillColor=#b1ddf0;strokeColor=none;" vertex="1" parent="1">
          <mxGeometry x="740" y="135.75" width="68" height="340.5" as="geometry" />
        </mxCell>
        <mxCell id="mOAyv0OrGzzF8VgRhnmG-21" value="&lt;b&gt;&lt;font style=&quot;font-size: 18px;&quot;&gt;KafkaController&lt;/font&gt;&lt;/b&gt;" style="text;html=1;strokeColor=none;fillColor=none;align=center;verticalAlign=middle;whiteSpace=wrap;rounded=0;dashed=1;fontFamily=Helvetica;" vertex="1" parent="1">
          <mxGeometry x="379" y="103" width="60" height="30" as="geometry" />
        </mxCell>
        <mxCell id="mOAyv0OrGzzF8VgRhnmG-37" style="edgeStyle=orthogonalEdgeStyle;rounded=0;orthogonalLoop=1;jettySize=auto;html=1;exitX=0.5;exitY=1;exitDx=0;exitDy=0;fontFamily=Helvetica;fontSize=18;dashed=1;" edge="1" parent="1" source="mOAyv0OrGzzF8VgRhnmG-26" target="mOAyv0OrGzzF8VgRhnmG-33">
          <mxGeometry relative="1" as="geometry" />
        </mxCell>
        <mxCell id="mOAyv0OrGzzF8VgRhnmG-26" value="channel" style="rounded=0;whiteSpace=wrap;html=1;fillColor=#f5f5f5;fontColor=#333333;strokeColor=none;" vertex="1" parent="1">
          <mxGeometry x="112" y="487" width="157" height="60" as="geometry" />
        </mxCell>
        <mxCell id="mOAyv0OrGzzF8VgRhnmG-38" style="edgeStyle=orthogonalEdgeStyle;rounded=0;orthogonalLoop=1;jettySize=auto;html=1;exitX=0.5;exitY=1;exitDx=0;exitDy=0;entryX=0.5;entryY=0;entryDx=0;entryDy=0;dashed=1;fontFamily=Helvetica;fontSize=18;" edge="1" parent="1" source="mOAyv0OrGzzF8VgRhnmG-30" target="mOAyv0OrGzzF8VgRhnmG-34">
          <mxGeometry relative="1" as="geometry" />
        </mxCell>
        <mxCell id="mOAyv0OrGzzF8VgRhnmG-30" value="channel" style="rounded=0;whiteSpace=wrap;html=1;fillColor=#f5f5f5;fontColor=#333333;strokeColor=none;" vertex="1" parent="1">
          <mxGeometry x="271" y="487" width="157" height="60" as="geometry" />
        </mxCell>
        <mxCell id="mOAyv0OrGzzF8VgRhnmG-39" style="edgeStyle=orthogonalEdgeStyle;rounded=0;orthogonalLoop=1;jettySize=auto;html=1;exitX=0.5;exitY=1;exitDx=0;exitDy=0;entryX=0.5;entryY=0;entryDx=0;entryDy=0;dashed=1;fontFamily=Helvetica;fontSize=18;" edge="1" parent="1" source="mOAyv0OrGzzF8VgRhnmG-31" target="mOAyv0OrGzzF8VgRhnmG-35">
          <mxGeometry relative="1" as="geometry" />
        </mxCell>
        <mxCell id="mOAyv0OrGzzF8VgRhnmG-31" value="channel" style="rounded=0;whiteSpace=wrap;html=1;strokeColor=none;fillColor=#f5f5f5;fontColor=#333333;" vertex="1" parent="1">
          <mxGeometry x="430" y="487" width="158" height="60" as="geometry" />
        </mxCell>
        <mxCell id="mOAyv0OrGzzF8VgRhnmG-40" style="edgeStyle=orthogonalEdgeStyle;rounded=0;orthogonalLoop=1;jettySize=auto;html=1;exitX=0.5;exitY=1;exitDx=0;exitDy=0;entryX=0.25;entryY=0;entryDx=0;entryDy=0;dashed=1;fontFamily=Helvetica;fontSize=18;" edge="1" parent="1" source="mOAyv0OrGzzF8VgRhnmG-32" target="mOAyv0OrGzzF8VgRhnmG-36">
          <mxGeometry relative="1" as="geometry" />
        </mxCell>
        <mxCell id="mOAyv0OrGzzF8VgRhnmG-32" value="..." style="rounded=0;whiteSpace=wrap;html=1;strokeColor=none;fillColor=#f5f5f5;fontColor=#333333;" vertex="1" parent="1">
          <mxGeometry x="590" y="487" width="143" height="60" as="geometry" />
        </mxCell>
        <mxCell id="mOAyv0OrGzzF8VgRhnmG-33" value="Broker-101" style="rounded=0;whiteSpace=wrap;html=1;fillColor=#dae8fc;strokeColor=none;" vertex="1" parent="1">
          <mxGeometry x="21" y="587" width="228" height="39" as="geometry" />
        </mxCell>
        <mxCell id="mOAyv0OrGzzF8VgRhnmG-34" value="Broker-102" style="rounded=0;whiteSpace=wrap;html=1;fillColor=#dae8fc;strokeColor=none;" vertex="1" parent="1">
          <mxGeometry x="260" y="587" width="228" height="39" as="geometry" />
        </mxCell>
        <mxCell id="mOAyv0OrGzzF8VgRhnmG-35" value="Broker-103" style="rounded=0;whiteSpace=wrap;html=1;fillColor=#dae8fc;strokeColor=none;" vertex="1" parent="1">
          <mxGeometry x="502" y="587" width="228" height="39" as="geometry" />
        </mxCell>
        <mxCell id="mOAyv0OrGzzF8VgRhnmG-36" value="..." style="rounded=0;whiteSpace=wrap;html=1;fillColor=#dae8fc;strokeColor=none;" vertex="1" parent="1">
          <mxGeometry x="737" y="585" width="81" height="41" as="geometry" />
        </mxCell>
      </root>
    </mxGraphModel>
  </diagram>
  <diagram id="iTfkoLVbdz3NQLwtvQs1" name="Page-3">
    <mxGraphModel dx="946" dy="627" grid="0" gridSize="10" guides="1" tooltips="1" connect="1" arrows="1" fold="1" page="1" pageScale="1" pageWidth="827" pageHeight="1169" math="0" shadow="0">
      <root>
        <mxCell id="0" />
        <mxCell id="1" parent="0" />
        <mxCell id="Q813XBf0uUEohR20F2HL-12" value="" style="rounded=0;whiteSpace=wrap;html=1;fontFamily=Helvetica;fontSize=18;strokeColor=default;fillColor=none;dashed=1;" vertex="1" parent="1">
          <mxGeometry x="45" y="353" width="710" height="301" as="geometry" />
        </mxCell>
        <mxCell id="Q813XBf0uUEohR20F2HL-1" value="" style="shape=cylinder3;whiteSpace=wrap;html=1;boundedLbl=1;backgroundOutline=1;size=15;fontFamily=Helvetica;fontSize=18;strokeColor=#0e8088;fillColor=#b0e3e6;" vertex="1" parent="1">
          <mxGeometry x="76" y="405" width="155" height="164" as="geometry" />
        </mxCell>
        <mxCell id="Q813XBf0uUEohR20F2HL-3" value="testA-0" style="rounded=0;whiteSpace=wrap;html=1;fontFamily=Helvetica;fontSize=18;strokeColor=none;fillColor=#fad9d5;" vertex="1" parent="1">
          <mxGeometry x="88.5" y="457" width="130" height="32" as="geometry" />
        </mxCell>
        <mxCell id="Q813XBf0uUEohR20F2HL-5" value="" style="verticalLabelPosition=bottom;verticalAlign=top;html=1;shape=mxgraph.basic.4_point_star_2;dx=0.8;fontFamily=Helvetica;fontSize=18;strokeColor=#FF0000;fillColor=#FF0000;" vertex="1" parent="1">
          <mxGeometry x="94" y="463.5" width="21" height="19" as="geometry" />
        </mxCell>
        <mxCell id="Q813XBf0uUEohR20F2HL-6" value="" style="shape=cylinder3;whiteSpace=wrap;html=1;boundedLbl=1;backgroundOutline=1;size=15;fontFamily=Helvetica;fontSize=18;strokeColor=#0e8088;fillColor=#b0e3e6;" vertex="1" parent="1">
          <mxGeometry x="312" y="405" width="155" height="164" as="geometry" />
        </mxCell>
        <mxCell id="Q813XBf0uUEohR20F2HL-7" value="testA-0" style="rounded=0;whiteSpace=wrap;html=1;fontFamily=Helvetica;fontSize=18;strokeColor=none;fillColor=#fad9d5;" vertex="1" parent="1">
          <mxGeometry x="324.5" y="457" width="130" height="32" as="geometry" />
        </mxCell>
        <mxCell id="Q813XBf0uUEohR20F2HL-9" value="" style="shape=cylinder3;whiteSpace=wrap;html=1;boundedLbl=1;backgroundOutline=1;size=15;fontFamily=Helvetica;fontSize=18;strokeColor=#0e8088;fillColor=#b0e3e6;" vertex="1" parent="1">
          <mxGeometry x="547" y="405" width="155" height="164" as="geometry" />
        </mxCell>
        <mxCell id="Q813XBf0uUEohR20F2HL-16" style="edgeStyle=orthogonalEdgeStyle;rounded=0;orthogonalLoop=1;jettySize=auto;html=1;exitX=0.5;exitY=1;exitDx=0;exitDy=0;fontFamily=Helvetica;fontSize=12;dashed=1;" edge="1" parent="1" source="Q813XBf0uUEohR20F2HL-10">
          <mxGeometry relative="1" as="geometry">
            <mxPoint x="203" y="483" as="targetPoint" />
            <Array as="points">
              <mxPoint x="592" y="489" />
              <mxPoint x="592" y="626" />
              <mxPoint x="203" y="626" />
            </Array>
          </mxGeometry>
        </mxCell>
        <mxCell id="Q813XBf0uUEohR20F2HL-17" value="拉取数据" style="edgeLabel;html=1;align=center;verticalAlign=middle;resizable=0;points=[];fontSize=12;fontFamily=Helvetica;" vertex="1" connectable="0" parent="Q813XBf0uUEohR20F2HL-16">
          <mxGeometry x="0.1478" relative="1" as="geometry">
            <mxPoint x="148" y="-9" as="offset" />
          </mxGeometry>
        </mxCell>
        <mxCell id="Q813XBf0uUEohR20F2HL-10" value="testA-0" style="rounded=0;whiteSpace=wrap;html=1;fontFamily=Helvetica;fontSize=18;strokeColor=none;fillColor=#fad9d5;" vertex="1" parent="1">
          <mxGeometry x="559.5" y="457" width="130" height="32" as="geometry" />
        </mxCell>
        <mxCell id="Q813XBf0uUEohR20F2HL-13" value="&lt;b&gt;Kafka集群&lt;/b&gt;" style="text;html=1;strokeColor=none;fillColor=none;align=center;verticalAlign=middle;whiteSpace=wrap;rounded=0;dashed=1;fontFamily=Helvetica;fontSize=18;" vertex="1" parent="1">
          <mxGeometry x="308" y="361" width="164" height="30" as="geometry" />
        </mxCell>
        <mxCell id="Q813XBf0uUEohR20F2HL-14" value="" style="endArrow=classic;html=1;rounded=0;fontFamily=Helvetica;fontSize=18;entryX=1;entryY=0.5;entryDx=0;entryDy=0;exitX=0;exitY=0.5;exitDx=0;exitDy=0;dashed=1;" edge="1" parent="1" source="Q813XBf0uUEohR20F2HL-7" target="Q813XBf0uUEohR20F2HL-3">
          <mxGeometry width="50" height="50" relative="1" as="geometry">
            <mxPoint x="349" y="230" as="sourcePoint" />
            <mxPoint x="307" y="268" as="targetPoint" />
          </mxGeometry>
        </mxCell>
        <mxCell id="Q813XBf0uUEohR20F2HL-15" value="&lt;font style=&quot;font-size: 12px;&quot;&gt;拉取数据&lt;/font&gt;" style="edgeLabel;html=1;align=center;verticalAlign=middle;resizable=0;points=[];fontSize=18;fontFamily=Helvetica;" vertex="1" connectable="0" parent="Q813XBf0uUEohR20F2HL-14">
          <mxGeometry x="0.1604" y="2" relative="1" as="geometry">
            <mxPoint x="14" y="-18" as="offset" />
          </mxGeometry>
        </mxCell>
        <mxCell id="Q813XBf0uUEohR20F2HL-18" value="Broker-101" style="text;html=1;strokeColor=none;fillColor=none;align=center;verticalAlign=middle;whiteSpace=wrap;rounded=0;dashed=1;fontFamily=Helvetica;fontSize=12;" vertex="1" parent="1">
          <mxGeometry x="115" y="566" width="69" height="30" as="geometry" />
        </mxCell>
        <mxCell id="Q813XBf0uUEohR20F2HL-19" value="Broker-102" style="text;html=1;strokeColor=none;fillColor=none;align=center;verticalAlign=middle;whiteSpace=wrap;rounded=0;dashed=1;fontFamily=Helvetica;fontSize=12;" vertex="1" parent="1">
          <mxGeometry x="353" y="566" width="69" height="30" as="geometry" />
        </mxCell>
        <mxCell id="Q813XBf0uUEohR20F2HL-20" value="Broker-103" style="text;html=1;strokeColor=none;fillColor=none;align=center;verticalAlign=middle;whiteSpace=wrap;rounded=0;dashed=1;fontFamily=Helvetica;fontSize=12;" vertex="1" parent="1">
          <mxGeometry x="603" y="566" width="69" height="30" as="geometry" />
        </mxCell>
      </root>
    </mxGraphModel>
  </diagram>
</mxfile>
